<?xml version="1.0" encoding="utf-8"?>
<!-- Generator: Adobe Illustrator 23.0.3, SVG Export Plug-In . SVG Version: 6.00 Build 0)  -->
<svg version="1.1" id="Layer_1" xmlns="http://www.w3.org/2000/svg" xmlns:xlink="http://www.w3.org/1999/xlink" x="0px" y="0px"
	 viewBox="0 0 32 32" style="enable-background:new 0 0 32 32;" xml:space="preserve" width="32" height="32">
<g>
	<path d="M0,0c0,10.69,0,21.32,0,32c10.73,0,21.4,0,32.11,0c0-10.7,0-21.35,0-32C21.37,0,10.69,0,0,0z M17.2,14.23
		c-0.3,2.46-2.1,4.17-4.46,4.23c-0.75,0.02-1.5,0-2.34,0c0,1.85,0,3.62,0,5.44c-0.83,0-1.58,0-2.38,0c0-4.99,0-9.96,0-15.14
		c2,0.1,4-0.01,5.92,0.34C16.13,9.5,17.49,11.88,17.2,14.23z M24.09,10.56c-1.77,0.23-2.03,0.61-1.79,2.62
		c0.31,0,0.65,0.03,0.97-0.01c0.64-0.08,0.84,0.2,0.79,0.8c-0.04,0.36-0.01,0.73-0.01,1.16c-0.62,0.03-1.17,0.06-1.82,0.1
		c0,2.9,0,5.76,0,8.67c-0.78,0-1.48,0-2.26,0c0-2.87,0-5.73,0-8.65c-0.51-0.04-0.94-0.07-1.41-0.11c0-0.65,0-1.26,0-1.92
		c0.45-0.03,0.86-0.05,1.3-0.08c0.46-3.98,1.47-5.02,4.23-4.33C24.09,9.39,24.09,9.98,24.09,10.56z"/>
	<path d="M12.61,11.09c-0.7-0.05-1.4-0.01-2.12-0.01c0,1.79,0,3.48,0,5.18c0.7,0,1.3,0.01,1.9-0.01c0.21-0.01,0.41-0.06,0.61-0.12
		c1.05-0.3,1.78-1.42,1.7-2.6C14.61,12.2,13.76,11.18,12.61,11.09z"/>
</g>
</svg>
